<?xml version="1.0" encoding="UTF-8" standalone="no"?>
<!DOCTYPE svg PUBLIC "-//W3C//DTD SVG 1.1//EN"
 "http://www.w3.org/Graphics/SVG/1.1/DTD/svg11.dtd">
<!-- Generated by graphviz version 2.40.1 (20161225.0304)
 -->
<!-- Title: %0 Pages: 1 -->
<svg width="1051pt" height="1737pt"
 viewBox="0.00 0.00 1050.99 1737.00" xmlns="http://www.w3.org/2000/svg" xmlns:xlink="http://www.w3.org/1999/xlink">
<g id="graph0" class="graph" transform="scale(1 1) rotate(0) translate(144 1593)">
<title>%0</title>
<polygon fill="#ffffff" stroke="transparent" points="-144,144 -144,-1593 906.9918,-1593 906.9918,144 -144,144"/>
<!-- addons -->
<g id="node1" class="node">
<title>addons</title>
<polygon fill="#ffffff" stroke="transparent" points="677.9918,-350 677.9918,-508 761.9918,-508 761.9918,-350 677.9918,-350"/>
<polygon fill="#add8e6" stroke="transparent" points="677.9918,-490 677.9918,-508 761.9918,-508 761.9918,-490 677.9918,-490"/>
<polygon fill="none" stroke="#000000" points="677.9918,-490 677.9918,-508 761.9918,-508 761.9918,-490 677.9918,-490"/>
<text text-anchor="start" x="704.9942" y="-496.9" font-family="Times,serif" font-weight="bold" font-style="italic" font-size="9.00" fill="#000000"> addons </text>
<polygon fill="none" stroke="#000000" points="677.9918,-470 677.9918,-490 761.9918,-490 761.9918,-470 677.9918,-470"/>
<text text-anchor="start" x="682.6243" y="-476.9" font-family="Times,serif" font-size="9.00" fill="#000000">AddOnName: String</text>
<polygon fill="none" stroke="#000000" points="677.9918,-450 677.9918,-470 761.9918,-470 761.9918,-450 677.9918,-450"/>
<text text-anchor="start" x="682.9918" y="-456.9" font-family="Times,serif" font-size="9.00" fill="#000000">price: Number</text>
<polygon fill="none" stroke="#000000" points="677.9918,-430 677.9918,-450 761.9918,-450 761.9918,-430 677.9918,-430"/>
<text text-anchor="start" x="682.9918" y="-436.9" font-family="Times,serif" font-size="9.00" fill="#000000">menu_id: ObjectId</text>
<polygon fill="none" stroke="#000000" points="677.9918,-410 677.9918,-430 761.9918,-430 761.9918,-410 677.9918,-410"/>
<text text-anchor="start" x="682.9918" y="-416.9" font-family="Times,serif" font-size="9.00" fill="#000000">_id: ObjectId</text>
<polygon fill="none" stroke="#000000" points="677.9918,-390 677.9918,-410 761.9918,-410 761.9918,-390 677.9918,-390"/>
<text text-anchor="start" x="682.9918" y="-396.9" font-family="Times,serif" font-size="9.00" fill="#000000">createdAt: Date</text>
<polygon fill="none" stroke="#000000" points="677.9918,-370 677.9918,-390 761.9918,-390 761.9918,-370 677.9918,-370"/>
<text text-anchor="start" x="682.9918" y="-376.9" font-family="Times,serif" font-size="9.00" fill="#000000">updatedAt: Date</text>
<polygon fill="none" stroke="#000000" points="677.9918,-350 677.9918,-370 761.9918,-370 761.9918,-350 677.9918,-350"/>
<text text-anchor="start" x="682.9918" y="-356.9" font-family="Times,serif" font-size="9.00" fill="#000000">__v: Number</text>
</g>
<!-- carts -->
<g id="node2" class="node">
<title>carts</title>
<polygon fill="#ffffff" stroke="transparent" points="357.9314,-1191 357.9314,-1449 503.9314,-1449 503.9314,-1191 357.9314,-1191"/>
<polygon fill="#add8e6" stroke="transparent" points="357.9314,-1431 357.9314,-1449 503.9314,-1449 503.9314,-1431 357.9314,-1431"/>
<polygon fill="none" stroke="#000000" points="357.9314,-1431 357.9314,-1449 503.9314,-1449 503.9314,-1431 357.9314,-1431"/>
<text text-anchor="start" x="420.1877" y="-1437.9" font-family="Times,serif" font-weight="bold" font-style="italic" font-size="9.00" fill="#000000"> carts </text>
<polygon fill="none" stroke="#000000" points="357.9314,-1411 357.9314,-1431 503.9314,-1431 503.9314,-1411 357.9314,-1411"/>
<text text-anchor="start" x="362.9314" y="-1417.9" font-family="Times,serif" font-size="9.00" fill="#000000">restaurantId: ObjectId</text>
<polygon fill="none" stroke="#000000" points="357.9314,-1391 357.9314,-1411 503.9314,-1411 503.9314,-1391 357.9314,-1391"/>
<text text-anchor="start" x="362.9314" y="-1397.9" font-family="Times,serif" font-size="9.00" fill="#000000">selectedTables: Array</text>
<polygon fill="none" stroke="#000000" points="357.9314,-1371 357.9314,-1391 503.9314,-1391 503.9314,-1371 357.9314,-1371"/>
<text text-anchor="start" x="362.9314" y="-1377.9" font-family="Times,serif" font-size="9.00" fill="#000000">selectedMenuItem._id: String</text>
<polygon fill="none" stroke="#000000" points="357.9314,-1351 357.9314,-1371 503.9314,-1371 503.9314,-1351 357.9314,-1351"/>
<text text-anchor="start" x="362.4522" y="-1357.9" font-family="Times,serif" font-size="9.00" fill="#000000">selectedMenuItem.menuName: String</text>
<polygon fill="none" stroke="#000000" points="357.9314,-1331 357.9314,-1351 503.9314,-1351 503.9314,-1331 357.9314,-1331"/>
<text text-anchor="start" x="362.9314" y="-1337.9" font-family="Times,serif" font-size="9.00" fill="#000000">selectedMenuItem.price: Number</text>
<polygon fill="none" stroke="#000000" points="357.9314,-1311 357.9314,-1331 503.9314,-1331 503.9314,-1311 357.9314,-1311"/>
<text text-anchor="start" x="362.9314" y="-1317.9" font-family="Times,serif" font-size="9.00" fill="#000000">selectedAddons: Array</text>
<polygon fill="none" stroke="#000000" points="357.9314,-1291 357.9314,-1311 503.9314,-1311 503.9314,-1291 357.9314,-1291"/>
<text text-anchor="start" x="362.9314" y="-1297.9" font-family="Times,serif" font-size="9.00" fill="#000000">OrderTableType: String</text>
<polygon fill="none" stroke="#000000" points="357.9314,-1271 357.9314,-1291 503.9314,-1291 503.9314,-1271 357.9314,-1271"/>
<text text-anchor="start" x="362.9314" y="-1277.9" font-family="Times,serif" font-size="9.00" fill="#000000">totalPrice: Number</text>
<polygon fill="none" stroke="#000000" points="357.9314,-1251 357.9314,-1271 503.9314,-1271 503.9314,-1251 357.9314,-1251"/>
<text text-anchor="start" x="362.9314" y="-1257.9" font-family="Times,serif" font-size="9.00" fill="#000000">username: String</text>
<polygon fill="none" stroke="#000000" points="357.9314,-1231 357.9314,-1251 503.9314,-1251 503.9314,-1231 357.9314,-1231"/>
<text text-anchor="start" x="362.9314" y="-1237.9" font-family="Times,serif" font-size="9.00" fill="#000000">Count: Number</text>
<polygon fill="none" stroke="#000000" points="357.9314,-1211 357.9314,-1231 503.9314,-1231 503.9314,-1211 357.9314,-1211"/>
<text text-anchor="start" x="362.9314" y="-1217.9" font-family="Times,serif" font-size="9.00" fill="#000000">_id: ObjectId</text>
<polygon fill="none" stroke="#000000" points="357.9314,-1191 357.9314,-1211 503.9314,-1211 503.9314,-1191 357.9314,-1191"/>
<text text-anchor="start" x="362.9314" y="-1197.9" font-family="Times,serif" font-size="9.00" fill="#000000">__v: Number</text>
</g>
<!-- chats -->
<g id="node3" class="node">
<title>chats</title>
<polygon fill="#ffffff" stroke="transparent" points="676.9918,-914 676.9918,-1052 762.9918,-1052 762.9918,-914 676.9918,-914"/>
<polygon fill="#add8e6" stroke="transparent" points="676.9918,-1034 676.9918,-1052 762.9918,-1052 762.9918,-1034 676.9918,-1034"/>
<polygon fill="none" stroke="#000000" points="676.9918,-1034 676.9918,-1052 762.9918,-1052 762.9918,-1034 676.9918,-1034"/>
<text text-anchor="start" x="708.4961" y="-1040.9" font-family="Times,serif" font-weight="bold" font-style="italic" font-size="9.00" fill="#000000"> chats </text>
<polygon fill="none" stroke="#000000" points="676.9918,-1014 676.9918,-1034 762.9918,-1034 762.9918,-1014 676.9918,-1014"/>
<text text-anchor="start" x="681.9918" y="-1020.9" font-family="Times,serif" font-size="9.00" fill="#000000">customer: String</text>
<polygon fill="none" stroke="#000000" points="676.9918,-994 676.9918,-1014 762.9918,-1014 762.9918,-994 676.9918,-994"/>
<text text-anchor="start" x="681.9918" y="-1000.9" font-family="Times,serif" font-size="9.00" fill="#000000">restaurant: ObjectId</text>
<polygon fill="none" stroke="#000000" points="676.9918,-974 676.9918,-994 762.9918,-994 762.9918,-974 676.9918,-974"/>
<text text-anchor="start" x="681.8836" y="-980.9" font-family="Times,serif" font-size="9.00" fill="#000000">reservation: ObjectId</text>
<polygon fill="none" stroke="#000000" points="676.9918,-954 676.9918,-974 762.9918,-974 762.9918,-954 676.9918,-954"/>
<text text-anchor="start" x="681.9918" y="-960.9" font-family="Times,serif" font-size="9.00" fill="#000000">messages: Array</text>
<polygon fill="none" stroke="#000000" points="676.9918,-934 676.9918,-954 762.9918,-954 762.9918,-934 676.9918,-934"/>
<text text-anchor="start" x="681.9918" y="-940.9" font-family="Times,serif" font-size="9.00" fill="#000000">_id: ObjectId</text>
<polygon fill="none" stroke="#000000" points="676.9918,-914 676.9918,-934 762.9918,-934 762.9918,-914 676.9918,-914"/>
<text text-anchor="start" x="681.9918" y="-920.9" font-family="Times,serif" font-size="9.00" fill="#000000">__v: Number</text>
</g>
<!-- menus -->
<g id="node4" class="node">
<title>menus</title>
<polygon fill="#ffffff" stroke="transparent" points="369.4314,-370 369.4314,-588 492.4314,-588 492.4314,-370 369.4314,-370"/>
<polygon fill="#add8e6" stroke="transparent" points="369.9314,-570 369.9314,-588 492.9314,-588 492.9314,-570 369.9314,-570"/>
<polygon fill="none" stroke="#000000" points="369.9314,-570 369.9314,-588 492.9314,-588 492.9314,-570 369.9314,-570"/>
<text text-anchor="start" x="417.4333" y="-576.9" font-family="Times,serif" font-weight="bold" font-style="italic" font-size="9.00" fill="#000000"> menus </text>
<polygon fill="none" stroke="#000000" points="369.9314,-550 369.9314,-570 492.9314,-570 492.9314,-550 369.9314,-550"/>
<text text-anchor="start" x="374.9314" y="-556.9" font-family="Times,serif" font-size="9.00" fill="#000000">menuName: String</text>
<polygon fill="none" stroke="#000000" points="369.9314,-530 369.9314,-550 492.9314,-550 492.9314,-530 369.9314,-530"/>
<text text-anchor="start" x="374.9314" y="-536.9" font-family="Times,serif" font-size="9.00" fill="#000000">price: Number</text>
<polygon fill="none" stroke="#000000" points="369.9314,-510 369.9314,-530 492.9314,-530 492.9314,-510 369.9314,-510"/>
<text text-anchor="start" x="374.9314" y="-516.9" font-family="Times,serif" font-size="9.00" fill="#000000">restaurant_id: ObjectId</text>
<polygon fill="none" stroke="#000000" points="369.9314,-490 369.9314,-510 492.9314,-510 492.9314,-490 369.9314,-490"/>
<text text-anchor="start" x="374.9314" y="-496.9" font-family="Times,serif" font-size="9.00" fill="#000000">status: String</text>
<polygon fill="none" stroke="#000000" points="369.9314,-470 369.9314,-490 492.9314,-490 492.9314,-470 369.9314,-470"/>
<text text-anchor="start" x="374.9314" y="-476.9" font-family="Times,serif" font-size="9.00" fill="#000000">menu_icon.data: Buffer</text>
<polygon fill="none" stroke="#000000" points="369.9314,-450 369.9314,-470 492.9314,-470 492.9314,-450 369.9314,-450"/>
<text text-anchor="start" x="374.4412" y="-456.9" font-family="Times,serif" font-size="9.00" fill="#000000">menu_icon.contentType: String</text>
<polygon fill="none" stroke="#000000" points="369.9314,-430 369.9314,-450 492.9314,-450 492.9314,-430 369.9314,-430"/>
<text text-anchor="start" x="374.9314" y="-436.9" font-family="Times,serif" font-size="9.00" fill="#000000">_id: ObjectId</text>
<polygon fill="none" stroke="#000000" points="369.9314,-410 369.9314,-430 492.9314,-430 492.9314,-410 369.9314,-410"/>
<text text-anchor="start" x="374.9314" y="-416.9" font-family="Times,serif" font-size="9.00" fill="#000000">createdAt: Date</text>
<polygon fill="none" stroke="#000000" points="369.9314,-390 369.9314,-410 492.9314,-410 492.9314,-390 369.9314,-390"/>
<text text-anchor="start" x="374.9314" y="-396.9" font-family="Times,serif" font-size="9.00" fill="#000000">updatedAt: Date</text>
<polygon fill="none" stroke="#000000" points="369.9314,-370 369.9314,-390 492.9314,-390 492.9314,-370 369.9314,-370"/>
<text text-anchor="start" x="374.9314" y="-376.9" font-family="Times,serif" font-size="9.00" fill="#000000">__v: Number</text>
</g>
<!-- menus&#45;&gt;addons -->
<g id="edge1" class="edge">
<title>menus:6&#45;&gt;addons:2</title>
<path fill="none" stroke="#000000" stroke-dasharray="5,2" d="M492.9314,-440C575.1805,-440 595.7427,-440 677.9918,-440"/>
<text text-anchor="middle" x="590.4616" y="-444.2" font-family="Times,serif" font-size="14.00" fill="#000000">menus&#45;addons</text>
<text text-anchor="middle" x="672.9385" y="-427.4" font-family="Times,serif" font-size="14.00" fill="#000000">N</text>
<text text-anchor="middle" x="496.4314" y="-427.4" font-family="Times,serif" font-size="14.00" fill="#000000">1</text>
</g>
<!-- reservations -->
<g id="node5" class="node">
<title>reservations</title>
<polygon fill="#ffffff" stroke="transparent" points="358.9314,-660 358.9314,-958 502.9314,-958 502.9314,-660 358.9314,-660"/>
<polygon fill="#add8e6" stroke="transparent" points="358.9314,-940 358.9314,-958 502.9314,-958 502.9314,-940 358.9314,-940"/>
<polygon fill="none" stroke="#000000" points="358.9314,-940 358.9314,-958 502.9314,-958 502.9314,-940 358.9314,-940"/>
<text text-anchor="start" x="406.9414" y="-946.9" font-family="Times,serif" font-weight="bold" font-style="italic" font-size="9.00" fill="#000000"> reservations </text>
<polygon fill="none" stroke="#000000" points="358.9314,-920 358.9314,-940 502.9314,-940 502.9314,-920 358.9314,-920"/>
<text text-anchor="start" x="363.9314" y="-926.9" font-family="Times,serif" font-size="9.00" fill="#000000">username: String</text>
<polygon fill="none" stroke="#000000" points="358.9314,-900 358.9314,-920 502.9314,-920 502.9314,-900 358.9314,-900"/>
<text text-anchor="start" x="363.9314" y="-906.9" font-family="Times,serif" font-size="9.00" fill="#000000">reservedTables: Array</text>
<polygon fill="none" stroke="#000000" points="358.9314,-880 358.9314,-900 502.9314,-900 502.9314,-880 358.9314,-880"/>
<text text-anchor="start" x="363.9314" y="-886.9" font-family="Times,serif" font-size="9.00" fill="#000000">orderedFood: Array</text>
<polygon fill="none" stroke="#000000" points="358.9314,-860 358.9314,-880 502.9314,-880 502.9314,-860 358.9314,-860"/>
<text text-anchor="start" x="363.9314" y="-866.9" font-family="Times,serif" font-size="9.00" fill="#000000">status: String</text>
<polygon fill="none" stroke="#000000" points="358.9314,-840 358.9314,-860 502.9314,-860 502.9314,-840 358.9314,-840"/>
<text text-anchor="start" x="363.9314" y="-846.9" font-family="Times,serif" font-size="9.00" fill="#000000">statusCheckIn: String</text>
<polygon fill="none" stroke="#000000" points="358.9314,-820 358.9314,-840 502.9314,-840 502.9314,-820 358.9314,-820"/>
<text text-anchor="start" x="363.9314" y="-826.9" font-family="Times,serif" font-size="9.00" fill="#000000">restaurant_id: ObjectId</text>
<polygon fill="none" stroke="#000000" points="358.9314,-800 358.9314,-820 502.9314,-820 502.9314,-800 358.9314,-800"/>
<text text-anchor="start" x="363.9314" y="-806.9" font-family="Times,serif" font-size="9.00" fill="#000000">total: Number</text>
<polygon fill="none" stroke="#000000" points="358.9314,-780 358.9314,-800 502.9314,-800 502.9314,-780 358.9314,-780"/>
<text text-anchor="start" x="363.9314" y="-786.9" font-family="Times,serif" font-size="9.00" fill="#000000">statusLocation: String</text>
<polygon fill="none" stroke="#000000" points="358.9314,-760 358.9314,-780 502.9314,-780 502.9314,-760 358.9314,-760"/>
<text text-anchor="start" x="363.9314" y="-766.9" font-family="Times,serif" font-size="9.00" fill="#000000">locationCustomer.latitude: Number</text>
<polygon fill="none" stroke="#000000" points="358.9314,-740 358.9314,-760 502.9314,-760 502.9314,-740 358.9314,-740"/>
<text text-anchor="start" x="363.6924" y="-746.9" font-family="Times,serif" font-size="9.00" fill="#000000">locationCustomer.longitude: Number</text>
<polygon fill="none" stroke="#000000" points="358.9314,-720 358.9314,-740 502.9314,-740 502.9314,-720 358.9314,-720"/>
<text text-anchor="start" x="363.9314" y="-726.9" font-family="Times,serif" font-size="9.00" fill="#000000">_id: ObjectId</text>
<polygon fill="none" stroke="#000000" points="358.9314,-700 358.9314,-720 502.9314,-720 502.9314,-700 358.9314,-700"/>
<text text-anchor="start" x="363.9314" y="-706.9" font-family="Times,serif" font-size="9.00" fill="#000000">createdAt: Date</text>
<polygon fill="none" stroke="#000000" points="358.9314,-680 358.9314,-700 502.9314,-700 502.9314,-680 358.9314,-680"/>
<text text-anchor="start" x="363.9314" y="-686.9" font-family="Times,serif" font-size="9.00" fill="#000000">updatedAt: Date</text>
<polygon fill="none" stroke="#000000" points="358.9314,-660 358.9314,-680 502.9314,-680 502.9314,-660 358.9314,-660"/>
<text text-anchor="start" x="363.9314" y="-666.9" font-family="Times,serif" font-size="9.00" fill="#000000">__v: Number</text>
</g>
<!-- reservations&#45;&gt;chats -->
<g id="edge4" class="edge">
<title>reservations:10&#45;&gt;chats:2</title>
<path fill="none" stroke="#000000" stroke-dasharray="5,2" d="M502.9314,-730C639.7835,-730 540.1397,-984 676.9918,-984"/>
<text text-anchor="middle" x="590.4616" y="-977.2" font-family="Times,serif" font-size="14.00" fill="#000000">reservations&#45;chats</text>
<text text-anchor="middle" x="671.9385" y="-971.4" font-family="Times,serif" font-size="14.00" fill="#000000">N</text>
<text text-anchor="middle" x="506.4314" y="-717.4" font-family="Times,serif" font-size="14.00" fill="#000000">1</text>
</g>
<!-- restaurants -->
<g id="node6" class="node">
<title>restaurants</title>
<polygon fill="#ffffff" stroke="transparent" points="0,-760 0,-1038 153,-1038 153,-760 0,-760"/>
<polygon fill="#add8e6" stroke="transparent" points=".5,-1020 .5,-1038 153.5,-1038 153.5,-1020 .5,-1020"/>
<polygon fill="none" stroke="#000000" points=".5,-1020 .5,-1038 153.5,-1038 153.5,-1020 .5,-1020"/>
<text text-anchor="start" x="55.26" y="-1026.9" font-family="Times,serif" font-weight="bold" font-style="italic" font-size="9.00" fill="#000000"> restaurants </text>
<polygon fill="none" stroke="#000000" points=".5,-1000 .5,-1020 153.5,-1020 153.5,-1000 .5,-1000"/>
<text text-anchor="start" x="5.5" y="-1006.9" font-family="Times,serif" font-size="9.00" fill="#000000">restaurantName: String</text>
<polygon fill="none" stroke="#000000" points=".5,-980 .5,-1000 153.5,-1000 153.5,-980 .5,-980"/>
<text text-anchor="start" x="5.5" y="-986.9" font-family="Times,serif" font-size="9.00" fill="#000000">description: String</text>
<polygon fill="none" stroke="#000000" points=".5,-960 .5,-980 153.5,-980 153.5,-960 .5,-960"/>
<text text-anchor="start" x="5.5" y="-966.9" font-family="Times,serif" font-size="9.00" fill="#000000">owner: String</text>
<polygon fill="none" stroke="#000000" points=".5,-940 .5,-960 153.5,-960 153.5,-940 .5,-940"/>
<text text-anchor="start" x="5.5" y="-946.9" font-family="Times,serif" font-size="9.00" fill="#000000">status: String</text>
<polygon fill="none" stroke="#000000" points=".5,-920 .5,-940 153.5,-940 153.5,-920 .5,-920"/>
<text text-anchor="start" x="5.5" y="-926.9" font-family="Times,serif" font-size="9.00" fill="#000000">restaurantIcon.data: Buffer</text>
<polygon fill="none" stroke="#000000" points=".5,-900 .5,-920 153.5,-920 153.5,-900 .5,-900"/>
<text text-anchor="start" x="5.5" y="-906.9" font-family="Times,serif" font-size="9.00" fill="#000000">restaurantIcon.contentType: String</text>
<polygon fill="none" stroke="#000000" points=".5,-880 .5,-900 153.5,-900 153.5,-880 .5,-880"/>
<text text-anchor="start" x="5.5" y="-886.9" font-family="Times,serif" font-size="9.00" fill="#000000">location.address: String</text>
<polygon fill="none" stroke="#000000" points=".5,-860 .5,-880 153.5,-880 153.5,-860 .5,-860"/>
<text text-anchor="start" x="5.5" y="-866.9" font-family="Times,serif" font-size="9.00" fill="#000000">location.coordinates.latitude: Number</text>
<polygon fill="none" stroke="#000000" points=".5,-840 .5,-860 153.5,-860 153.5,-840 .5,-840"/>
<text text-anchor="start" x="5.3919" y="-846.9" font-family="Times,serif" font-size="9.00" fill="#000000">location.coordinates.longitude: Number</text>
<polygon fill="none" stroke="#000000" points=".5,-820 .5,-840 153.5,-840 153.5,-820 .5,-820"/>
<text text-anchor="start" x="5.5" y="-826.9" font-family="Times,serif" font-size="9.00" fill="#000000">_id: ObjectId</text>
<polygon fill="none" stroke="#000000" points=".5,-800 .5,-820 153.5,-820 153.5,-800 .5,-800"/>
<text text-anchor="start" x="5.5" y="-806.9" font-family="Times,serif" font-size="9.00" fill="#000000">createdAt: Date</text>
<polygon fill="none" stroke="#000000" points=".5,-780 .5,-800 153.5,-800 153.5,-780 .5,-780"/>
<text text-anchor="start" x="5.5" y="-786.9" font-family="Times,serif" font-size="9.00" fill="#000000">updatedAt: Date</text>
<polygon fill="none" stroke="#000000" points=".5,-760 .5,-780 153.5,-780 153.5,-760 .5,-760"/>
<text text-anchor="start" x="5.5" y="-766.9" font-family="Times,serif" font-size="9.00" fill="#000000">__v: Number</text>
</g>
<!-- restaurants&#45;&gt;carts -->
<g id="edge2" class="edge">
<title>restaurants:9&#45;&gt;carts:0</title>
<path fill="none" stroke="#000000" stroke-dasharray="5,2" d="M153,-830C189.5529,-830 176.8293,-1122.5328 189,-1157 235.3813,-1288.3506 218.6324,-1421 357.9314,-1421"/>
<text text-anchor="middle" x="255.4657" y="-1421.2" font-family="Times,serif" font-size="14.00" fill="#000000">restaurants&#45;carts</text>
<text text-anchor="middle" x="352.8781" y="-1408.4" font-family="Times,serif" font-size="14.00" fill="#000000">N</text>
<text text-anchor="middle" x="156.5" y="-817.4" font-family="Times,serif" font-size="14.00" fill="#000000">1</text>
</g>
<!-- restaurants&#45;&gt;chats -->
<g id="edge3" class="edge">
<title>restaurants:9&#45;&gt;chats:1</title>
<path fill="none" stroke="#000000" stroke-dasharray="5,2" d="M153,-830C175.3154,-830 172.1022,-850.4247 189,-865 260.5338,-926.7019 269.6686,-960.3267 357.9314,-994 475.6161,-1038.8981 515.2261,-1014.9655 640.9918,-1008 657.0656,-1007.1097 660.8933,-1004 676.9918,-1004"/>
<text text-anchor="middle" x="430.9314" y="-1024.2" font-family="Times,serif" font-size="14.00" fill="#000000">restaurants&#45;chats</text>
<text text-anchor="middle" x="671.9385" y="-991.4" font-family="Times,serif" font-size="14.00" fill="#000000">N</text>
<text text-anchor="middle" x="156.5" y="-834.2" font-family="Times,serif" font-size="14.00" fill="#000000">1</text>
</g>
<!-- restaurants&#45;&gt;menus -->
<g id="edge5" class="edge">
<title>restaurants:9&#45;&gt;menus:2</title>
<path fill="none" stroke="#000000" stroke-dasharray="5,2" d="M153,-830C174.0202,-830 348.9112,-520 369.9314,-520"/>
<text text-anchor="middle" x="255.4657" y="-789.2" font-family="Times,serif" font-size="14.00" fill="#000000">restaurants&#45;menus</text>
<text text-anchor="middle" x="364.8781" y="-507.4" font-family="Times,serif" font-size="14.00" fill="#000000">N</text>
<text text-anchor="middle" x="149.5" y="-834.2" font-family="Times,serif" font-size="14.00" fill="#000000">1</text>
</g>
<!-- restaurants&#45;&gt;reservations -->
<g id="edge6" class="edge">
<title>restaurants:9&#45;&gt;reservations:5</title>
<path fill="none" stroke="#000000" stroke-dasharray="5,2" d="M153,-830C244.5251,-830 267.4063,-830 358.9314,-830"/>
<text text-anchor="middle" x="255.4657" y="-834.2" font-family="Times,serif" font-size="14.00" fill="#000000">restaurants&#45;reservations</text>
<text text-anchor="middle" x="353.8781" y="-817.4" font-family="Times,serif" font-size="14.00" fill="#000000">N</text>
<text text-anchor="middle" x="156.5" y="-834.2" font-family="Times,serif" font-size="14.00" fill="#000000">1</text>
</g>
<!-- tables -->
<g id="node7" class="node">
<title>tables</title>
<polygon fill="#ffffff" stroke="transparent" points="384.4314,0 384.4314,-298 477.4314,-298 477.4314,0 384.4314,0"/>
<polygon fill="#add8e6" stroke="transparent" points="384.9314,-280 384.9314,-298 477.9314,-298 477.9314,-280 384.9314,-280"/>
<polygon fill="none" stroke="#000000" points="384.9314,-280 384.9314,-298 477.9314,-298 477.9314,-280 384.9314,-280"/>
<text text-anchor="start" x="418.6852" y="-286.9" font-family="Times,serif" font-weight="bold" font-style="italic" font-size="9.00" fill="#000000"> tables </text>
<polygon fill="none" stroke="#000000" points="384.9314,-260 384.9314,-280 477.9314,-280 477.9314,-260 384.9314,-260"/>
<text text-anchor="start" x="389.9314" y="-266.9" font-family="Times,serif" font-size="9.00" fill="#000000">text: String</text>
<polygon fill="none" stroke="#000000" points="384.9314,-240 384.9314,-260 477.9314,-260 477.9314,-240 384.9314,-240"/>
<text text-anchor="start" x="389.9314" y="-246.9" font-family="Times,serif" font-size="9.00" fill="#000000">x: Number</text>
<polygon fill="none" stroke="#000000" points="384.9314,-220 384.9314,-240 477.9314,-240 477.9314,-220 384.9314,-220"/>
<text text-anchor="start" x="389.9314" y="-226.9" font-family="Times,serif" font-size="9.00" fill="#000000">y: Number</text>
<polygon fill="none" stroke="#000000" points="384.9314,-200 384.9314,-220 477.9314,-220 477.9314,-200 384.9314,-200"/>
<text text-anchor="start" x="389.8226" y="-206.9" font-family="Times,serif" font-size="9.00" fill="#000000">restaurant_id: ObjectId</text>
<polygon fill="none" stroke="#000000" points="384.9314,-180 384.9314,-200 477.9314,-200 477.9314,-180 384.9314,-180"/>
<text text-anchor="start" x="389.9314" y="-186.9" font-family="Times,serif" font-size="9.00" fill="#000000">status: String</text>
<polygon fill="none" stroke="#000000" points="384.9314,-160 384.9314,-180 477.9314,-180 477.9314,-160 384.9314,-160"/>
<text text-anchor="start" x="389.9314" y="-166.9" font-family="Times,serif" font-size="9.00" fill="#000000">type: String</text>
<polygon fill="none" stroke="#000000" points="384.9314,-140 384.9314,-160 477.9314,-160 477.9314,-140 384.9314,-140"/>
<text text-anchor="start" x="389.9314" y="-146.9" font-family="Times,serif" font-size="9.00" fill="#000000">height: Number</text>
<polygon fill="none" stroke="#000000" points="384.9314,-120 384.9314,-140 477.9314,-140 477.9314,-120 384.9314,-120"/>
<text text-anchor="start" x="389.9314" y="-126.9" font-family="Times,serif" font-size="9.00" fill="#000000">width: Number</text>
<polygon fill="none" stroke="#000000" points="384.9314,-100 384.9314,-120 477.9314,-120 477.9314,-100 384.9314,-100"/>
<text text-anchor="start" x="389.9314" y="-106.9" font-family="Times,serif" font-size="9.00" fill="#000000">shapeType: String</text>
<polygon fill="none" stroke="#000000" points="384.9314,-80 384.9314,-100 477.9314,-100 477.9314,-80 384.9314,-80"/>
<text text-anchor="start" x="389.9314" y="-86.9" font-family="Times,serif" font-size="9.00" fill="#000000">color: String</text>
<polygon fill="none" stroke="#000000" points="384.9314,-60 384.9314,-80 477.9314,-80 477.9314,-60 384.9314,-60"/>
<text text-anchor="start" x="389.9314" y="-66.9" font-family="Times,serif" font-size="9.00" fill="#000000">_id: ObjectId</text>
<polygon fill="none" stroke="#000000" points="384.9314,-40 384.9314,-60 477.9314,-60 477.9314,-40 384.9314,-40"/>
<text text-anchor="start" x="389.9314" y="-46.9" font-family="Times,serif" font-size="9.00" fill="#000000">createdAt: Date</text>
<polygon fill="none" stroke="#000000" points="384.9314,-20 384.9314,-40 477.9314,-40 477.9314,-20 384.9314,-20"/>
<text text-anchor="start" x="389.9314" y="-26.9" font-family="Times,serif" font-size="9.00" fill="#000000">updatedAt: Date</text>
<polygon fill="none" stroke="#000000" points="384.9314,0 384.9314,-20 477.9314,-20 477.9314,0 384.9314,0"/>
<text text-anchor="start" x="389.9314" y="-6.9" font-family="Times,serif" font-size="9.00" fill="#000000">__v: Number</text>
</g>
<!-- restaurants&#45;&gt;tables -->
<g id="edge7" class="edge">
<title>restaurants:9&#45;&gt;tables:3</title>
<path fill="none" stroke="#000000" stroke-dasharray="5,2" d="M153,-830C215.4699,-830 169.0623,-610.4029 189,-551.2 244.8105,-385.4766 210.0627,-210 384.9314,-210"/>
<text text-anchor="middle" x="255.4657" y="-556.2" font-family="Times,serif" font-size="14.00" fill="#000000">restaurants&#45;tables</text>
<text text-anchor="middle" x="379.8781" y="-197.4" font-family="Times,serif" font-size="14.00" fill="#000000">N</text>
<text text-anchor="middle" x="149.5" y="-817.4" font-family="Times,serif" font-size="14.00" fill="#000000">1</text>
</g>
<!-- users -->
<g id="node8" class="node">
<title>users</title>
<polygon fill="#ffffff" stroke="transparent" points="28.5,-1110 28.5,-1388 124.5,-1388 124.5,-1110 28.5,-1110"/>
<polygon fill="#add8e6" stroke="transparent" points="28.5,-1370 28.5,-1388 124.5,-1388 124.5,-1370 28.5,-1370"/>
<polygon fill="none" stroke="#000000" points="28.5,-1370 28.5,-1388 124.5,-1388 124.5,-1370 28.5,-1370"/>
<text text-anchor="start" x="65.0043" y="-1376.9" font-family="Times,serif" font-weight="bold" font-style="italic" font-size="9.00" fill="#000000"> users </text>
<polygon fill="none" stroke="#000000" points="28.5,-1350 28.5,-1370 124.5,-1370 124.5,-1350 28.5,-1350"/>
<text text-anchor="start" x="33.5" y="-1356.9" font-family="Times,serif" font-size="9.00" fill="#000000">username: String</text>
<polygon fill="none" stroke="#000000" points="28.5,-1330 28.5,-1350 124.5,-1350 124.5,-1330 28.5,-1330"/>
<text text-anchor="start" x="33.5" y="-1336.9" font-family="Times,serif" font-size="9.00" fill="#000000">email: String</text>
<polygon fill="none" stroke="#000000" points="28.5,-1310 28.5,-1330 124.5,-1330 124.5,-1310 28.5,-1310"/>
<text text-anchor="start" x="33.5" y="-1316.9" font-family="Times,serif" font-size="9.00" fill="#000000">password: String</text>
<polygon fill="none" stroke="#000000" points="28.5,-1290 28.5,-1310 124.5,-1310 124.5,-1290 28.5,-1290"/>
<text text-anchor="start" x="33.5" y="-1296.9" font-family="Times,serif" font-size="9.00" fill="#000000">birthday: String</text>
<polygon fill="none" stroke="#000000" points="28.5,-1270 28.5,-1290 124.5,-1290 124.5,-1270 28.5,-1270"/>
<text text-anchor="start" x="33.5" y="-1276.9" font-family="Times,serif" font-size="9.00" fill="#000000">phonenumber: String</text>
<polygon fill="none" stroke="#000000" points="28.5,-1250 28.5,-1270 124.5,-1270 124.5,-1250 28.5,-1250"/>
<text text-anchor="start" x="33.5" y="-1256.9" font-family="Times,serif" font-size="9.00" fill="#000000">role: String</text>
<polygon fill="none" stroke="#000000" points="28.5,-1230 28.5,-1250 124.5,-1250 124.5,-1230 28.5,-1230"/>
<text text-anchor="start" x="33.3877" y="-1236.9" font-family="Times,serif" font-size="9.00" fill="#000000">username_lower: String</text>
<polygon fill="none" stroke="#000000" points="28.5,-1210 28.5,-1230 124.5,-1230 124.5,-1210 28.5,-1210"/>
<text text-anchor="start" x="33.5" y="-1216.9" font-family="Times,serif" font-size="9.00" fill="#000000">expiresAt: Date</text>
<polygon fill="none" stroke="#000000" points="28.5,-1190 28.5,-1210 124.5,-1210 124.5,-1190 28.5,-1190"/>
<text text-anchor="start" x="33.5" y="-1196.9" font-family="Times,serif" font-size="9.00" fill="#000000">otp: String</text>
<polygon fill="none" stroke="#000000" points="28.5,-1170 28.5,-1190 124.5,-1190 124.5,-1170 28.5,-1170"/>
<text text-anchor="start" x="33.5" y="-1176.9" font-family="Times,serif" font-size="9.00" fill="#000000">_id: ObjectId</text>
<polygon fill="none" stroke="#000000" points="28.5,-1150 28.5,-1170 124.5,-1170 124.5,-1150 28.5,-1150"/>
<text text-anchor="start" x="33.5" y="-1156.9" font-family="Times,serif" font-size="9.00" fill="#000000">createdAt: Date</text>
<polygon fill="none" stroke="#000000" points="28.5,-1130 28.5,-1150 124.5,-1150 124.5,-1130 28.5,-1130"/>
<text text-anchor="start" x="33.5" y="-1136.9" font-family="Times,serif" font-size="9.00" fill="#000000">updatedAt: Date</text>
<polygon fill="none" stroke="#000000" points="28.5,-1110 28.5,-1130 124.5,-1130 124.5,-1110 28.5,-1110"/>
<text text-anchor="start" x="33.5" y="-1116.9" font-family="Times,serif" font-size="9.00" fill="#000000">__v: Number</text>
</g>
</g>
</svg>
